<svg width="20" height="21" viewBox="0 0 20 21" fill="none" xmlns="http://www.w3.org/2000/svg">
<path d="M16.6666 8.83335C16.6666 13.8334 9.99992 18.8334 9.99992 18.8334C9.99992 18.8334 3.33325 13.8334 3.33325 8.83335C3.33325 7.06524 4.03563 5.36955 5.28587 4.11931C6.53612 2.86907 8.23181 2.16669 9.99992 2.16669C11.768 2.16669 13.4637 2.86907 14.714 4.11931C15.9642 5.36955 16.6666 7.06524 16.6666 8.83335Z" stroke="#B7B7BA" stroke-width="2" stroke-linecap="round" stroke-linejoin="round"/>
<path d="M9.99992 11.3334C11.3806 11.3334 12.4999 10.2141 12.4999 8.83335C12.4999 7.45264 11.3806 6.33335 9.99992 6.33335C8.61921 6.33335 7.49992 7.45264 7.49992 8.83335C7.49992 10.2141 8.61921 11.3334 9.99992 11.3334Z" stroke="#B7B7BA" stroke-width="2" stroke-linecap="round" stroke-linejoin="round"/>
</svg>
