<svg width="14" height="15" viewBox="0 0 14 15" fill="none" xmlns="http://www.w3.org/2000/svg">
<g clip-path="url(#clip0_305_483)">
<path d="M3.5 13.3334C4.4665 13.3334 5.25 12.5499 5.25 11.5834C5.25 10.6169 4.4665 9.83337 3.5 9.83337C2.5335 9.83337 1.75 10.6169 1.75 11.5834C1.75 12.5499 2.5335 13.3334 3.5 13.3334Z" stroke="#416084" stroke-width="1.875" stroke-linecap="round" stroke-linejoin="round"/>
<path d="M5.25 11.5833H10.2083C10.7498 11.5833 11.2691 11.3682 11.652 10.9853C12.0349 10.6024 12.25 10.0831 12.25 9.54163C12.25 9.00014 12.0349 8.48084 11.652 8.09795C11.2691 7.71506 10.7498 7.49996 10.2083 7.49996H3.79167C3.25018 7.49996 2.73088 7.28486 2.34799 6.90197C1.9651 6.51908 1.75 5.99978 1.75 5.45829C1.75 4.91681 1.9651 4.3975 2.34799 4.01462C2.73088 3.63173 3.25018 3.41663 3.79167 3.41663H8.75" stroke="#416084" stroke-width="1.875" stroke-linecap="round" stroke-linejoin="round"/>
<path d="M10.5 5.16663C11.4665 5.16663 12.25 4.38312 12.25 3.41663C12.25 2.45013 11.4665 1.66663 10.5 1.66663C9.5335 1.66663 8.75 2.45013 8.75 3.41663C8.75 4.38312 9.5335 5.16663 10.5 5.16663Z" stroke="#416084" stroke-width="1.875" stroke-linecap="round" stroke-linejoin="round"/>
</g>
<defs>
<clipPath id="clip0_305_483">
<rect width="14" height="14" fill="white" transform="translate(0 0.5)"/>
</clipPath>
</defs>
</svg>
