<svg width="393" height="358" viewBox="0 0 393 358" fill="none" xmlns="http://www.w3.org/2000/svg">
<g clip-path="url(#clip0_263_4)">
<path d="M391 93.3037C391 93.3037 360.825 89.8335 335.815 93.3037C310.804 96.774 260.041 113.584 207.32 135.947C169.588 151.952 134.082 179.337 91.5001 192.5C65.7285 200.466 22.1414 204.322 22.1414 204.322L10.2793 235.746C10.2793 235.746 26.7355 237.433 76.542 220.597C126.348 203.76 293.185 128.459 326.97 129.768C360.754 131.078 356.145 139.617 356.145 139.617L357.767 151.303C357.767 151.303 311.7 151.847 282 160.5C200.7 184.188 133.5 241 71.5685 251.561C40.4888 256.861 19.083 265.792 -0.581055 266.039" stroke="#33AEFD" stroke-width="182"/>
<path d="M323 86.5456C323 86.5456 309.182 79.9999 293.182 80C277.182 80.0001 243.856 94.3121 208.818 116.363C183.742 132.145 158.146 153.005 130.273 163.636C113.403 170.07 86.6364 178.909 86.6364 178.909L76.4545 222.545C76.4545 222.545 86.6364 228.364 119.364 213.818C152.091 199.273 263.364 122.848 284.455 131.636C305.545 140.424 301.909 152 301.909 152V169.455C301.909 169.455 274.031 172.267 254.636 178.909C201.545 197.091 153.546 242.182 113.546 258.182C93.854 266.058 79.3636 268.364 67 264.727" stroke="white" stroke-width="18"/>
</g>
<defs>
<clipPath id="clip0_263_4">
<rect width="393" height="358" fill="white"/>
</clipPath>
</defs>
</svg>
