<svg width="33" height="33" viewBox="0 0 33 33" fill="none" xmlns="http://www.w3.org/2000/svg">
<rect width="33" height="33" rx="7" fill="#029CFE"/>
<path d="M22 6.875C22.7594 6.875 23.375 6.25939 23.375 5.5C23.375 4.74061 22.7594 4.125 22 4.125C21.2406 4.125 20.625 4.74061 20.625 5.5C20.625 6.25939 21.2406 6.875 22 6.875Z" stroke="white" stroke-width="3" stroke-linecap="round" stroke-linejoin="round"/>
<path d="M24.75 26.125L26.125 16.5L17.875 17.875" stroke="white" stroke-width="3" stroke-linecap="round" stroke-linejoin="round"/>
<path d="M6.875 11L11 6.875L18.5625 11L15.3175 15.8125" stroke="white" stroke-width="3" stroke-linecap="round" stroke-linejoin="round"/>
<path d="M5.8301 19.9375C5.44213 21.2067 5.42981 22.5611 5.79464 23.8371C6.15948 25.1132 6.88586 26.2564 7.8861 27.1287C8.88635 28.001 10.1177 28.5651 11.4315 28.753C12.7453 28.9409 14.0855 28.7445 15.2901 28.1875" stroke="white" stroke-width="3" stroke-linecap="round" stroke-linejoin="round"/>
<path d="M18.92 24.0625C19.3079 22.7933 19.3203 21.4389 18.9554 20.1629C18.5906 18.8868 17.8642 17.7436 16.864 16.8713C15.8637 15.999 14.6324 15.4349 13.3185 15.247C12.0047 15.0591 10.6646 15.2555 9.45996 15.8125" stroke="white" stroke-width="3" stroke-linecap="round" stroke-linejoin="round"/>
</svg>
